<svg id="Layer_1" data-name="Layer 1" xmlns="http://www.w3.org/2000/svg" viewBox="0 0 425.2 139.48"><defs><style>.cls-1{fill:#024ebc;}.cls-2{fill:#31c968;}.cls-3{fill:#a4db5b;}.cls-4{fill:#344050;}</style></defs><circle class="cls-1" cx="30.38" cy="33.09" r="19.95"/><path class="cls-2" d="M81.55-7.51h7.89a32,32,0,0,1,32,32v51a0,0,0,0,1,0,0h-23A16.89,16.89,0,0,1,81.55,58.61V-7.51a0,0,0,0,1,0,0Z" transform="matrix(0, 1, -1, 0, 135.4, -67.54)"/><path class="cls-3" d="M72.93,14H96a0,0,0,0,1,0,0V95.35A30.63,30.63,0,0,1,65.35,126H56a0,0,0,0,1,0,0V30.91A16.89,16.89,0,0,1,72.93,14Z" transform="translate(-0.07 0.08) rotate(-0.06)"/><path class="cls-4" d="M167.37,69v8.21h-15v40.1H143V77.19H128V69Z"/><path class="cls-4" d="M190.77,80v8.7c-7.8-.49-12.56,4.07-12.56,10.76v17.81h-9V80.36h9v7.11C180.69,82.64,185,80.09,190.77,80Z"/><path class="cls-4" d="M228,102H200.78a10.31,10.31,0,0,0,10.56,8.42,13.74,13.74,0,0,0,9.94-4.14l4.83,5c-3.66,4-9,6.35-15.53,6.35-11.46,0-19-7.59-19-18.7s7.73-18.84,18.77-18.84C223.35,80.09,228.94,88.58,228,102Zm-8.14-6c-.21-5.45-3.87-8.9-9.46-8.9-5.31,0-9,3.45-9.87,8.9Z"/><path class="cls-4" d="M266.83,102H239.57a10.3,10.3,0,0,0,10.56,8.42,13.7,13.7,0,0,0,9.93-4.14l4.84,5c-3.66,4-9,6.35-15.53,6.35-11.46,0-19-7.59-19-18.7s7.73-18.84,18.77-18.84C262.13,80.09,267.72,88.58,266.83,102Zm-8.15-6c-.2-5.45-3.86-8.9-9.45-8.9-5.32,0-9,3.45-9.87,8.9Z"/><path class="cls-3" d="M309,105.21h-26.3l-5.38,12.36h-5.87l21.68-48.31h5.72l21.61,48.31h-6Zm-2.21-5.1-11-24.85L285,100.11Z"/><path class="cls-3" d="M331.46,69.26l17.67,35.06,17.6-35.06h6.76v48.31h-5.11l-.07-40.17-17.6,35.06H347.4L329.87,77.4v40.17h-5.24V69.26Z"/><path class="cls-3" d="M398.75,74.43c-6.21,0-10.28,2.49-10.28,6.63,0,12.56,27.19,6,27.12,23.53,0,8-7.11,13.19-17.46,13.19a27.59,27.59,0,0,1-18.5-7.39l2.49-4.76a24.26,24.26,0,0,0,16.08,6.76c7,0,11.32-2.83,11.32-7.52.07-12.91-27.13-6.07-27.13-23.4,0-7.59,6.7-12.42,16.71-12.42a28.61,28.61,0,0,1,15.32,4.49l-2.35,4.9A25.45,25.45,0,0,0,398.75,74.43Z"/></svg>