<svg width="21" height="21" viewBox="0 0 21 21" fill="none" xmlns="http://www.w3.org/2000/svg">
<path d="M10.6817 2.19238C8.48031 2.22046 6.37697 3.10744 4.82021 4.6642C3.26345 6.22096 2.37646 8.32431 2.34839 10.5257C2.35868 11.8081 2.66482 13.0709 3.24298 14.2157C3.82114 15.3604 4.65571 16.3563 5.68172 17.1257V17.1924H5.76506C7.17604 18.2736 8.9041 18.8596 10.6817 18.8596C12.4593 18.8596 14.1874 18.2736 15.5984 17.1924H15.6817V17.1257C16.7077 16.3563 17.5423 15.3604 18.1205 14.2157C18.6986 13.0709 19.0048 11.8081 19.0151 10.5257C18.987 8.32431 18.1 6.22096 16.5432 4.6642C14.9865 3.10744 12.8831 2.22046 10.6817 2.19238ZM7.40672 16.3007C7.52838 15.7436 7.83685 15.2448 8.28096 14.8871C8.72507 14.5294 9.27813 14.3342 9.84839 14.334H11.5151C12.0853 14.3342 12.6384 14.5294 13.0825 14.8871C13.5266 15.2448 13.8351 15.7436 13.9567 16.3007C12.9641 16.8847 11.8334 17.1927 10.6817 17.1927C9.53005 17.1927 8.39933 16.8847 7.40672 16.3007ZM15.3567 15.2257C15.0397 14.4682 14.506 13.8212 13.8225 13.366C13.139 12.9108 12.3362 12.6678 11.5151 12.6674H9.84839C9.0272 12.6678 8.22445 12.9108 7.54095 13.366C6.85746 13.8212 6.3237 14.4682 6.00672 15.2257C5.38227 14.6115 4.88497 13.8803 4.54323 13.0739C4.20149 12.2674 4.02202 11.4016 4.01506 10.5257C4.03667 8.76432 4.74599 7.08116 5.99158 5.83557C7.23716 4.58998 8.92033 3.88066 10.6817 3.85905C12.4431 3.88066 14.1263 4.58998 15.3719 5.83557C16.6175 7.08116 17.3268 8.76432 17.3484 10.5257C17.3414 11.4016 17.162 12.2674 16.8202 13.0739C16.4785 13.8803 15.9812 14.6115 15.3567 15.2257Z" fill="#31C968"/>
<path d="M10.6816 5.5253C10.2411 5.51504 9.80303 5.59424 9.39398 5.75812C8.98492 5.92201 8.61335 6.16716 8.30176 6.47876C7.99016 6.79036 7.745 7.16192 7.58112 7.57098C7.41724 7.98004 7.33803 8.41809 7.3483 8.85863C7.33803 9.29918 7.41724 9.73723 7.58112 10.1463C7.745 10.5553 7.99016 10.9269 8.30176 11.2385C8.61335 11.5501 8.98492 11.7953 9.39398 11.9591C9.80303 12.123 10.2411 12.2022 10.6816 12.192C11.1222 12.2022 11.5602 12.123 11.9693 11.9591C12.3783 11.7953 12.7499 11.5501 13.0615 11.2385C13.3731 10.9269 13.6183 10.5553 13.7821 10.1463C13.946 9.73723 14.0252 9.29918 14.015 8.85863C14.0252 8.41809 13.946 7.98004 13.7821 7.57098C13.6183 7.16192 13.3731 6.79036 13.0615 6.47876C12.7499 6.16716 12.3783 5.92201 11.9693 5.75812C11.5602 5.59424 11.1222 5.51504 10.6816 5.5253ZM10.6816 10.5253C10.4599 10.536 10.2384 10.5002 10.0314 10.4203C9.8243 10.3403 9.63625 10.2179 9.47929 10.061C9.32234 9.90401 9.19995 9.71596 9.11998 9.5089C9.04002 9.30184 9.00424 9.08034 9.01496 8.85863C9.00424 8.63692 9.04002 8.41542 9.11998 8.20836C9.19995 8.0013 9.32234 7.81325 9.47929 7.6563C9.63625 7.49934 9.8243 7.37695 10.0314 7.29698C10.2384 7.21702 10.4599 7.18125 10.6816 7.19196C10.9033 7.18125 11.1248 7.21702 11.3319 7.29698C11.539 7.37695 11.727 7.49934 11.884 7.6563C12.0409 7.81325 12.1633 8.0013 12.2433 8.20836C12.3232 8.41542 12.359 8.63692 12.3483 8.85863C12.359 9.08034 12.3232 9.30184 12.2433 9.5089C12.1633 9.71596 12.0409 9.90401 11.884 10.061C11.727 10.2179 11.539 10.3403 11.3319 10.4203C11.1248 10.5002 10.9033 10.536 10.6816 10.5253Z" fill="#31C968"/>
</svg>
