<svg width="26" height="26" viewBox="0 0 26 26" fill="none" xmlns="http://www.w3.org/2000/svg">
  <path fill-rule="evenodd" clip-rule="evenodd"
    d="M13.0013 0.142578C5.9138 0.142578 0.167969 5.88841 0.167969 12.9759C0.167969 20.0634 5.9138 25.8092 13.0013 25.8092C20.0888 25.8092 25.8346 20.0634 25.8346 12.9759C25.8346 5.88841 20.0888 0.142578 13.0013 0.142578ZM13.001 16.4766C12.3106 16.4766 11.751 15.9169 11.751 15.2266V6.46461C11.751 5.77425 12.3106 5.21461 13.001 5.21461C13.6913 5.21461 14.251 5.77425 14.251 6.46461V15.2266C14.251 15.9169 13.6913 16.4766 13.001 16.4766ZM14.501 19.4766C14.501 18.6481 13.8294 17.9766 13.001 17.9766C12.1725 17.9766 11.501 18.6481 11.501 19.4766C11.501 20.305 12.1725 20.9766 13.001 20.9766C13.8294 20.9766 14.501 20.305 14.501 19.4766Z"
    fill="#E63756" />
</svg>