<svg width="26" height="26" viewBox="0 0 26 26" fill="none" xmlns="http://www.w3.org/2000/svg">
  <path fill-rule="evenodd" clip-rule="evenodd"
    d="M13.0013 0.142578C5.9138 0.142578 0.167969 5.88841 0.167969 12.9759C0.167969 20.0634 5.9138 25.8092 13.0013 25.8092C20.0888 25.8092 25.8346 20.0634 25.8346 12.9759C25.8346 5.88841 20.0888 0.142578 13.0013 0.142578ZM18.564 10.8059C18.6664 10.6888 18.7444 10.5524 18.7933 10.4048C18.8423 10.2571 18.8612 10.1011 18.849 9.94606C18.8367 9.79098 18.7936 9.6399 18.7221 9.50173C18.6507 9.36355 18.5523 9.24107 18.4328 9.14148C18.3133 9.04189 18.175 8.9672 18.0262 8.92182C17.8775 8.87643 17.7211 8.86127 17.5663 8.87721C17.4116 8.89315 17.2616 8.93988 17.1252 9.01465C16.9888 9.08942 16.8687 9.19071 16.772 9.31258L11.7553 15.3314L9.15947 12.7344C8.93943 12.5219 8.64473 12.4043 8.33883 12.407C8.03294 12.4096 7.74032 12.5323 7.52401 12.7486C7.3077 12.9649 7.18501 13.2575 7.18235 13.5634C7.17969 13.8693 7.29728 14.164 7.5098 14.3841L11.0098 17.8841C11.1244 17.9986 11.2617 18.0881 11.4128 18.1466C11.5639 18.2052 11.7255 18.2317 11.8874 18.2243C12.0493 18.217 12.2079 18.176 12.3531 18.1039C12.4983 18.0319 12.6269 17.9304 12.7306 17.8059L18.564 10.8059Z"
    fill="#31C968" />
</svg>