<svg width="21" height="21" viewBox="0 0 21 21" fill="none" xmlns="http://www.w3.org/2000/svg">
  <path
    d="M14.0382 5.48308L15.8032 7.24725M15.1732 3.92892L10.4007 8.70142C10.1541 8.94767 9.98596 9.2614 9.9174 9.60308L9.47656 11.8098L11.6832 11.3681C12.0249 11.2998 12.3382 11.1323 12.5849 10.8856L17.3574 6.11308C17.5008 5.96967 17.6146 5.79941 17.6922 5.61203C17.7698 5.42465 17.8098 5.22382 17.8098 5.021C17.8098 4.81818 17.7698 4.61735 17.6922 4.42997C17.6146 4.24259 17.5008 4.07233 17.3574 3.92892C17.214 3.7855 17.0437 3.67174 16.8563 3.59413C16.669 3.51651 16.4681 3.47656 16.2653 3.47656C16.0625 3.47656 15.8617 3.51651 15.6743 3.59413C15.4869 3.67174 15.3166 3.7855 15.1732 3.92892V3.92892Z"
    stroke="url(#paint0_linear_5901_17335)" stroke-width="2.33333" stroke-linecap="round" stroke-linejoin="round" />
  <path
    d="M16.1426 13.4779V15.9779C16.1426 16.4199 15.967 16.8438 15.6544 17.1564C15.3419 17.4689 14.9179 17.6445 14.4759 17.6445H5.30924C4.86722 17.6445 4.44329 17.4689 4.13073 17.1564C3.81817 16.8438 3.64258 16.4199 3.64258 15.9779V6.8112C3.64258 6.36917 3.81817 5.94525 4.13073 5.63269C4.44329 5.32013 4.86722 5.14453 5.30924 5.14453H7.80924"
    stroke="url(#paint1_linear_5901_17335)" stroke-width="2.33333" stroke-linecap="round" stroke-linejoin="round" />
  <defs>
    <linearGradient id="paint0_linear_5901_17335" x1="10.1514" y1="10.4013" x2="16.4013" y2="4.15143"
      gradientUnits="userSpaceOnUse">
      <stop stop-color="#1970E2" />
      <stop offset="0.0001" stop-color="#1970E2" />
      <stop offset="1" stop-color="#4695FF" />
    </linearGradient>
    <linearGradient id="paint1_linear_5901_17335" x1="4.6549" y1="15.5319" x2="14.0299" y2="6.15686"
      gradientUnits="userSpaceOnUse">
      <stop stop-color="#1970E2" />
      <stop offset="0.0001" stop-color="#1970E2" />
      <stop offset="1" stop-color="#4695FF" />
    </linearGradient>
  </defs>
</svg>