<svg width="16" height="9" viewBox="0 0 16 9" fill="none" xmlns="http://www.w3.org/2000/svg">
<path d="M9.3637 0.38687C9.53978 0.219231 9.7741 0.126554 10.0172 0.128393C10.2603 0.130233 10.4932 0.226446 10.6668 0.39673C10.8403 0.567014 10.9409 0.79805 10.9473 1.04109C10.9537 1.28413 10.8655 1.52015 10.7012 1.69937L5.7137 7.93687C5.62794 8.02924 5.52443 8.10337 5.40936 8.15483C5.2943 8.20628 5.17004 8.23401 5.04401 8.23634C4.91799 8.23867 4.79279 8.21557 4.67589 8.16841C4.559 8.12125 4.45282 8.051 4.3637 7.96187L1.0562 4.65437C0.964089 4.56854 0.890211 4.46504 0.838972 4.35004C0.787732 4.23504 0.760179 4.1109 0.757958 3.98502C0.755737 3.85915 0.778893 3.73411 0.826044 3.61737C0.873196 3.50064 0.943376 3.3946 1.0324 3.30557C1.12142 3.21655 1.22747 3.14637 1.3442 3.09922C1.46094 3.05207 1.58597 3.02891 1.71185 3.03113C1.83773 3.03335 1.96187 3.0609 2.07687 3.11214C2.19187 3.16338 2.29537 3.23726 2.3812 3.32937L4.9987 5.94562L9.3387 0.41437C9.34648 0.40472 9.35483 0.395537 9.3637 0.38687V0.38687ZM8.2137 6.81187L9.3637 7.96187C9.4528 8.05081 9.5589 8.12089 9.67568 8.16794C9.79245 8.21498 9.91751 8.23803 10.0434 8.23569C10.1693 8.23336 10.2934 8.2057 10.4083 8.15436C10.5233 8.10302 10.6267 8.02905 10.7124 7.93687L15.7024 1.69937C15.7921 1.61087 15.863 1.50522 15.9109 1.38871C15.9588 1.27221 15.9827 1.14725 15.9812 1.0213C15.9798 0.89534 15.9529 0.770972 15.9023 0.655618C15.8517 0.540264 15.7784 0.436291 15.6867 0.349907C15.595 0.263523 15.4869 0.1965 15.3687 0.15284C15.2506 0.109181 15.1248 0.0897798 14.999 0.0957967C14.8732 0.101814 14.7499 0.133125 14.6364 0.18786C14.523 0.242596 14.4217 0.319632 14.3387 0.41437L9.99745 5.94562L9.3912 5.33812L8.21245 6.81187H8.2137Z" fill="#00D27B"/>
</svg>
